<?xml version="1.0" standalone="no"?><!DOCTYPE svg PUBLIC "-//W3C//DTD SVG 1.1//EN" "http://www.w3.org/Graphics/SVG/1.1/DTD/svg11.dtd"><svg class="icon" width="200px" height="200.00px" viewBox="0 0 1024 1024" version="1.1" xmlns="http://www.w3.org/2000/svg"><path fill="#000000" d="M539.136 122.197333l376.945778 151.608889c12.8 5.12 19.911111 18.318222 17.976889 31.345778l0.113777 2.389333-0.455111 248.490667 0.170667 1.365333c0 14.279111-10.353778 26.168889-23.893333 28.672l-5.290667 0.455111a29.184 29.184 0 0 1-28.672-23.893333l-0.455111-5.233778-0.170667-0.056889 0.398222-206.279111-300.942222 123.619556-6.371555 3.072c-16.213333 9.102222-27.136 25.372444-29.411556 43.804444l-0.398222 6.997334-0.568889 360.504889 195.754667-80.440889v62.976l-213.902223 87.950222a29.127111 29.127111 0 0 1-11.150222 2.161778l-2.332444-0.113778-3.413334 0.227555a29.127111 29.127111 0 0 1-11.093333-2.161777l-361.813333-147.569778a116.622222 116.622222 0 0 1-72.590222-107.804445L56.888889 300.771556c0-1.365333 0.113778-2.787556 0.341333-4.152889l-0.170666 2.048 0.341333-3.584a29.184 29.184 0 0 1 22.983111-23.438223l371.712-149.447111a116.622222 116.622222 0 0 1 87.04 0zM115.256889 344.007111l0.625778 360.163556c0 21.276444 11.662222 40.675556 29.980444 50.858666l6.314667 3.015111 321.536 131.242667-0.568889-360.561778c0-21.276444-11.605333-40.675556-29.923556-50.858666l-6.257777-3.015111-263.964445-107.633778-57.742222-23.210667z m706.787555 213.333333a28.444444 28.444444 0 0 1 28.444445 28.444445v88.177778h88.177778a28.444444 28.444444 0 0 1 28.444444 28.444444v1.479111a28.444444 28.444444 0 0 1-28.444444 28.444445l-88.177778-0.056889v88.177778a28.444444 28.444444 0 0 1-28.444445 28.444444h-1.422222a28.444444 28.444444 0 0 1-28.444444-28.444444v-88.177778h-88.177778a28.444444 28.444444 0 0 1-28.444444-28.444445v-1.365333a28.444444 28.444444 0 0 1 28.444444-28.444444l88.177778-0.056889v-88.177778a28.444444 28.444444 0 0 1 28.444444-28.444445h1.422222z m-341.048888-383.431111L473.884444 176.355556 164.408889 300.714667l41.016889 16.725333L473.884444 425.415111c11.605333 4.664889 24.405333 5.461333 36.408889 2.332445l7.111111-2.332445 309.646223-124.586667-309.646223-124.529777a58.311111 58.311111 0 0 0-36.408888-2.332445z"  /></svg>