<?xml version="1.0" standalone="no"?><!DOCTYPE svg PUBLIC "-//W3C//DTD SVG 1.1//EN" "http://www.w3.org/Graphics/SVG/1.1/DTD/svg11.dtd"><svg class="icon" width="200px" height="200.00px" viewBox="0 0 1024 1024" version="1.1" xmlns="http://www.w3.org/2000/svg"><path fill="#000000" d="M512 152.234667a359.765333 359.765333 0 1 0 0 719.530666 359.765333 359.765333 0 0 0 0-719.530666zM89.002667 512a422.997333 422.997333 0 1 1 846.08 0 422.997333 422.997333 0 0 1-846.08 0zM512 0a31.573333 31.573333 0 0 1 31.658667 31.573333v178.005334a31.573333 31.573333 0 0 1-63.146667 0V31.573333A31.573333 31.573333 0 0 1 512 0zM0 512a31.573333 31.573333 0 0 1 31.573333-31.573333h178.005334a31.573333 31.573333 0 1 1 0 63.146666H31.573333A31.573333 31.573333 0 0 1 0 512zM512 782.848a31.573333 31.573333 0 0 1 31.658667 31.573333v177.92a31.573333 31.573333 0 0 1-63.146667 0V814.421333a31.573333 31.573333 0 0 1 31.573333-31.573333zM782.848 512a31.573333 31.573333 0 0 1 31.573333-31.573333h177.92a31.573333 31.573333 0 0 1 0 63.146666H814.421333a31.573333 31.573333 0 0 1-31.573333-31.573333z" /></svg>