<?xml version="1.0" standalone="no"?><!DOCTYPE svg PUBLIC "-//W3C//DTD SVG 1.1//EN" "http://www.w3.org/Graphics/SVG/1.1/DTD/svg11.dtd"><svg class="icon" width="200px" height="170.38px" viewBox="0 0 1202 1024" version="1.1" xmlns="http://www.w3.org/2000/svg"><path fill="#000000" d="M814.631575 881.957283l-22.586298-45.172595a415.587878 415.587878 0 0 0 224.357224-303.660226l50.191773 8.030684a464.273898 464.273898 0 0 1-251.962699 340.802137zM286.614125 202.36068l-38.647665-32.122735a464.273898 464.273898 0 0 1 712.723173-7.026848l-38.145747 32.624652A414.082125 414.082125 0 0 0 286.614125 202.36068zM421.128076 891.49372A464.775816 464.775816 0 0 1 150.594421 557.718431l50.191773-10.038355a415.085961 415.085961 0 0 0 239.916673 298.139131z"  /><path fill="#000000" d="M1017.908254 538.14364A183.199971 183.199971 0 1 1 1201.108225 352.935998a182.698053 182.698053 0 0 1-183.199971 185.207642z m0-316.208169A133.008198 133.008198 0 1 0 1150.916452 352.935998a133.008198 133.008198 0 0 0-133.008198-131.000527zM183.720991 538.14364a200.767091 200.767091 0 0 1-30.115064 0A181.1923 181.1923 0 0 1 34.651426 461.852145a180.690382 180.690382 0 0 1-32.122735-136.521622 183.199971 183.199971 0 0 1 361.882682 59.226292A182.196135 182.196135 0 0 1 290.127549 503.511316a180.188464 180.188464 0 0 1-106.406558 34.632324z m0-316.208169a133.008198 133.008198 0 0 0-108.414229 210.805446 134.513951 134.513951 0 0 0 86.329849 53.705197 134.012033 134.012033 0 0 0 150.575318-109.919983 134.513951 134.513951 0 0 0-23.088215-100.383545 133.008198 133.008198 0 0 0-84.322179-52.199444 104.900805 104.900805 0 0 0-21.582462-2.007671zM613.864484 1024a183.199971 183.199971 0 1 1 183.19997-183.199971 183.701888 183.701888 0 0 1-183.19997 183.199971z m0-316.208168a133.008198 133.008198 0 1 0 133.008197 133.008197 133.510116 133.510116 0 0 0-133.008197-133.008197z"  /></svg>